<?xml version="1.0" standalone="no"?>
<!DOCTYPE svg PUBLIC "-//W3C//DTD SVG 20010904//EN"
 "http://www.w3.org/TR/2001/REC-SVG-20010904/DTD/svg10.dtd">
<svg version="1.0" xmlns="http://www.w3.org/2000/svg"
 width="107.000000pt" height="107.000000pt" viewBox="0 0 107.000000 107.000000"
 preserveAspectRatio="xMidYMid meet">

<g transform="translate(0.000000,107.000000) scale(0.100000,-0.100000)"
fill="#000000" stroke="none">
<path d="M0 535 l0 -535 535 0 535 0 0 535 0 535 -535 0 -535 0 0 -535z m371
392 c-1 -4 -1 -14 -1 -23 0 -8 -4 -12 -10 -9 -13 8 -13 48 1 43 6 -2 10 -7 10
-11z m356 2 c6 -6 9 -17 6 -25 -7 -18 -33 -5 -33 17 0 21 11 24 27 8z m-442
-9 c3 -5 1 -10 -4 -10 -6 0 -11 5 -11 10 0 6 2 10 4 10 3 0 8 -4 11 -10z m505
0 c0 -5 -4 -10 -10 -10 -5 0 -10 5 -10 10 0 6 5 10 10 10 6 0 10 -4 10 -10z
m-380 -4 c0 -3 -4 -8 -10 -11 -5 -3 -10 -1 -10 4 0 6 5 11 10 11 6 0 10 -2 10
-4z m420 -6 c0 -5 -5 -10 -11 -10 -5 0 -7 5 -4 10 3 6 8 10 11 10 2 0 4 -4 4
-10z m-170 -9 c0 -6 -4 -13 -10 -16 -5 -3 -10 1 -10 9 0 9 5 16 10 16 6 0 10
-4 10 -9z m-200 -11 c0 -5 -4 -10 -10 -10 -5 0 -10 5 -10 10 0 6 5 10 10 10 6
0 10 -4 10 -10z m-260 -20 c0 -5 -4 -10 -9 -10 -6 0 -13 5 -16 10 -3 6 1 10 9
10 9 0 16 -4 16 -10z m221 -10 c24 0 39 -5 43 -16 3 -8 9 -13 13 -11 5 3 6
-15 4 -39 -2 -26 2 -51 9 -59 7 -9 8 -15 2 -15 -18 0 -34 29 -27 50 3 11 2 20
-3 20 -6 0 -12 7 -15 14 -4 11 -1 13 10 9 13 -5 14 -3 4 15 -8 16 -21 22 -45
22 -20 0 -39 7 -47 18 -11 14 -11 15 1 5 8 -7 31 -13 51 -13z m494 10 c4 -6
-6 -10 -22 -10 -22 0 -25 2 -13 10 19 12 27 12 35 0z m-315 -10 c0 -5 -4 -10
-10 -10 -5 0 -10 5 -10 10 0 6 5 10 10 10 6 0 10 -4 10 -10z m234 -5 c-13 -9
-52 -15 -100 -17 l-79 -3 -3 -30 c-5 -44 -19 -55 -70 -55 l-45 0 6 -41 c4 -29
2 -38 -5 -31 -6 6 -10 36 -9 66 0 31 -3 56 -9 56 -6 0 -10 10 -9 23 0 12 3 17
5 10 4 -8 13 -9 29 -3 15 6 27 6 30 -1 4 -5 1 -8 -6 -7 -7 2 -13 -2 -14 -9 0
-6 -3 -15 -7 -19 -19 -18 -7 -34 26 -34 38 0 66 21 66 49 0 32 25 42 104 42
42 0 78 4 81 10 4 5 11 9 18 9 6 0 2 -7 -9 -15z m-673 -4 c-11 -7 -10 -10 4
-18 15 -9 13 -11 -14 -16 -30 -6 -35 -17 -34 -64 1 -7 -3 -13 -8 -13 -5 0 -8
-5 -7 -11 2 -6 -3 -14 -9 -16 -20 -7 -16 38 7 75 11 18 20 39 20 47 0 7 8 16
18 18 29 8 38 7 23 -2z m786 -37 c-3 -3 -13 0 -21 9 -8 8 -12 18 -9 21 4 4 14
0 22 -9 8 -8 12 -17 8 -21z m-617 -63 c0 -44 -1 -45 -13 -21 -7 14 -9 27 -5
28 12 5 10 36 -4 52 -11 12 -10 12 5 1 12 -10 17 -27 17 -60z m350 59 c0 -5
-2 -10 -4 -10 -3 0 -8 5 -11 10 -3 6 -1 10 4 10 6 0 11 -4 11 -10z m-385 -20
c3 -6 -1 -7 -9 -4 -18 7 -21 14 -7 14 6 0 13 -4 16 -10z m675 -5 c0 -8 5 -15
10 -15 6 0 10 -20 10 -45 0 -25 -5 -45 -11 -45 -5 0 -8 4 -4 9 3 5 1 12 -4 16
-6 3 -8 12 -5 20 8 20 -41 31 -70 16 -12 -7 -46 -11 -76 -8 l-55 3 62 2 c34 1
65 7 68 12 3 6 18 10 32 10 17 0 24 4 20 14 -6 15 1 26 15 26 4 0 8 -7 8 -15z
m-550 -5 c0 -5 -7 -10 -15 -10 -8 0 -15 5 -15 10 0 6 7 10 15 10 8 0 15 -4 15
-10z m250 -24 c0 -2 -7 -7 -16 -10 -8 -3 -12 -2 -9 4 6 10 25 14 25 6z m-575
-66 c3 -5 1 -10 -4 -10 -6 0 -11 5 -11 10 0 6 2 10 4 10 3 0 8 -4 11 -10z
m296 -20 c24 0 53 -7 63 -15 11 -8 15 -15 9 -15 -7 0 -15 5 -19 11 -4 8 -35 9
-99 4 -88 -6 -92 -6 -98 14 -4 17 -1 21 19 21 17 0 22 -4 18 -15 -5 -12 2 -15
27 -15 30 1 32 2 17 14 -10 7 -18 17 -18 21 0 5 8 1 18 -8 11 -10 36 -17 63
-17z m159 -30 c0 -5 -2 -10 -4 -10 -3 0 -8 5 -11 10 -3 6 -1 10 4 10 6 0 11
-4 11 -10z m440 -20 l0 -31 -50 7 c-41 5 -55 3 -73 -12 l-22 -19 19 23 c13 14
30 22 52 22 44 0 64 9 57 26 -3 8 0 14 6 14 6 0 11 -14 11 -30z m-806 -1 c6
-5 38 -9 72 -9 35 0 65 -3 67 -7 7 -11 -126 -3 -137 8 -6 5 -28 9 -49 9 -31 0
-38 -3 -33 -15 3 -8 1 -15 -3 -15 -9 0 -21 24 -21 40 0 10 92 0 104 -11z m256
11 c0 -5 -4 -10 -10 -10 -5 0 -10 5 -10 10 0 6 5 10 10 10 6 0 10 -4 10 -10z
m145 1 c3 -5 1 -12 -5 -16 -5 -3 -10 1 -10 9 0 18 6 21 15 7z m172 -28 c-3
-10 -5 -4 -5 12 0 17 2 24 5 18 2 -7 2 -21 0 -30z m-204 -12 c-6 -3 -10 -23
-11 -45 l-1 -39 22 19 c22 19 22 19 -1 -7 -14 -17 -21 -34 -18 -50 3 -13 5
-32 5 -41 1 -14 10 -18 39 -20 l37 -1 -37 -4 c-35 -4 -37 -6 -44 -49 -3 -25
-4 -64 -1 -87 5 -42 5 -42 -8 -12 -7 16 -12 37 -10 45 12 68 14 115 7 176 -8
75 1 139 19 128 7 -4 7 -9 2 -13z m-153 -1 c0 -5 -2 -10 -4 -10 -3 0 -8 5 -11
10 -3 6 -1 10 4 10 6 0 11 -4 11 -10z m-257 -34 c15 -22 15 -25 1 -30 -22 -8
-22 -8 -34 14 -21 40 9 54 33 16z m612 14 c3 -5 1 -10 -4 -10 -6 0 -11 5 -11
10 0 6 2 10 4 10 3 0 8 -4 11 -10z m205 -10 c0 -5 -4 -10 -10 -10 -5 0 -10 5
-10 10 0 6 5 10 10 10 6 0 10 -4 10 -10z m-286 -36 c4 -11 2 -12 -14 -1 -11 6
-20 15 -20 19 0 12 28 -3 34 -18z m56 16 c0 -5 -2 -10 -4 -10 -3 0 -8 5 -11
10 -3 6 -1 10 4 10 6 0 11 -4 11 -10z m140 -4 c0 -2 -7 -9 -15 -16 -13 -11
-14 -10 -9 4 5 14 24 23 24 12z m-432 -13 c-16 -2 -40 -2 -55 0 -16 2 -3 4 27
4 30 0 43 -2 28 -4z m495 -24 c-17 -17 -37 -1 -22 17 8 10 15 12 23 4 7 -7 7
-13 -1 -21z m-768 11 c3 -5 -1 -10 -9 -10 -9 0 -16 5 -16 10 0 6 4 10 9 10 6
0 13 -4 16 -10z m612 4 c-3 -3 -12 -4 -19 -1 -8 3 -5 6 6 6 11 1 17 -2 13 -5z
m-576 -21 c13 -16 12 -17 -3 -4 -10 7 -18 15 -18 17 0 8 8 3 21 -13z m434 7
c3 -5 1 -10 -4 -10 -6 0 -11 5 -11 10 0 6 2 10 4 10 3 0 8 -4 11 -10z m113
-27 c-21 -2 -57 -2 -80 0 -24 2 -7 4 37 4 44 0 63 -2 43 -4z m-483 -24 c11 -5
47 -10 80 -12 l60 -3 -67 -2 c-40 -1 -70 2 -74 9 -4 7 -22 9 -45 6 -29 -4 -39
-2 -39 9 0 14 46 11 85 -7z m595 -19 c0 -5 -2 -10 -4 -10 -3 0 -8 5 -11 10 -3
6 -1 10 4 10 6 0 11 -4 11 -10z m-605 -20 c10 -12 24 -19 30 -16 7 2 12 -5 11
-17 -1 -24 -31 -31 -31 -7 -1 24 -15 41 -32 38 -9 -2 -18 3 -20 10 -7 19 22
14 42 -8z m521 -5 c5 -20 9 -23 20 -14 27 23 15 -12 -15 -42 -33 -32 -46 -37
-37 -13 4 9 1 23 -5 30 -9 11 -7 14 11 14 15 0 20 5 18 18 -3 13 -17 18 -73
23 l-70 5 72 2 c70 2 73 1 79 -23z m-346 -39 c0 -23 6 -48 13 -56 10 -12 9
-12 -5 -2 -16 13 -31 115 -15 105 4 -2 7 -23 7 -47z m-75 -56 c3 -5 1 -10 -4
-10 -6 0 -11 5 -11 10 0 6 2 10 4 10 3 0 8 -4 11 -10z m365 -21 c0 -14 -17
-10 -23 5 -4 10 -1 13 9 9 7 -3 14 -9 14 -14z m-320 -19 c0 -5 -5 -10 -11 -10
-5 0 -7 5 -4 10 3 6 8 10 11 10 2 0 4 -4 4 -10z m280 -20 c0 -19 -28 -10 -33
10 -4 17 -2 18 14 9 10 -5 19 -14 19 -19z m-225 -10 c-3 -6 1 -13 9 -16 17 -6
22 -34 8 -34 -5 0 -17 9 -28 21 -16 17 -16 22 -4 29 19 12 23 12 15 0z m139
-67 c-51 -50 -83 -54 -62 -7 11 23 13 24 19 7 6 -15 8 -14 8 7 1 19 4 21 10
11 8 -12 12 -12 25 2 9 8 16 20 16 26 0 6 7 8 15 5 10 -4 2 -18 -31 -51z m-84
-3 c0 -5 -4 -10 -10 -10 -5 0 -10 5 -10 10 0 6 5 10 10 10 6 0 10 -4 10 -10z
m65 -100 c-3 -5 -19 -10 -36 -10 -16 0 -29 5 -29 10 0 6 16 10 36 10 21 0 33
-4 29 -10z"/>
</g>
</svg>
